<mxfile host="app.diagrams.net" modified="2022-05-23T12:42:58.791Z" agent="5.0 (Windows NT 10.0; Win64; x64) AppleWebKit/537.36 (KHTML, like Gecko) Chrome/101.0.4951.67 Safari/537.36" etag="HoaXiNXJQrWUMAtrlVTJ" version="18.1.1" type="github">
  <diagram id="C5RBs43oDa-KdzZeNtuy" name="Page-1">
    <mxGraphModel dx="2307" dy="1216" grid="1" gridSize="10" guides="1" tooltips="1" connect="1" arrows="1" fold="1" page="1" pageScale="1" pageWidth="827" pageHeight="1169" math="0" shadow="0">
      <root>
        <mxCell id="WIyWlLk6GJQsqaUBKTNV-0" />
        <mxCell id="WIyWlLk6GJQsqaUBKTNV-1" parent="WIyWlLk6GJQsqaUBKTNV-0" />
        <mxCell id="2Q6zyHyjx5GXIw4nZjvg-0" value="UserForm(form)" style="swimlane;fontStyle=0;align=center;verticalAlign=top;childLayout=stackLayout;horizontal=1;startSize=26;horizontalStack=0;resizeParent=1;resizeLast=0;collapsible=1;marginBottom=0;rounded=0;shadow=0;strokeWidth=1;" vertex="1" parent="WIyWlLk6GJQsqaUBKTNV-1">
          <mxGeometry x="320" y="80" width="280" height="440" as="geometry">
            <mxRectangle x="550" y="140" width="160" height="26" as="alternateBounds" />
          </mxGeometry>
        </mxCell>
        <mxCell id="2Q6zyHyjx5GXIw4nZjvg-1" value="- name：String&#xa;- birthdate：LocalDate&#xa;- createdBy：String&#xa;&#xa;登録・更新データ受け取り用" style="text;align=left;verticalAlign=top;spacingLeft=4;spacingRight=4;overflow=hidden;rotatable=0;points=[[0,0.5],[1,0.5]];portConstraint=eastwest;" vertex="1" parent="2Q6zyHyjx5GXIw4nZjvg-0">
          <mxGeometry y="26" width="280" height="154" as="geometry" />
        </mxCell>
        <mxCell id="2Q6zyHyjx5GXIw4nZjvg-2" value="" style="line;html=1;strokeWidth=1;align=left;verticalAlign=middle;spacingTop=-1;spacingLeft=3;spacingRight=3;rotatable=0;labelPosition=right;points=[];portConstraint=eastwest;" vertex="1" parent="2Q6zyHyjx5GXIw4nZjvg-0">
          <mxGeometry y="180" width="280" height="8" as="geometry" />
        </mxCell>
        <mxCell id="2Q6zyHyjx5GXIw4nZjvg-3" value="+ getName()：String&#xa;+ getBirthdate()：LocalDate&#xa;+ getCreatedBy()：String&#xa;&#xa;+ setName(name:String)：void&#xa;+ setBirthdate(LocalDate:birthdate)：void&#xa;+ setCreatedBy(createdBy:String)：void" style="text;align=left;verticalAlign=top;spacingLeft=4;spacingRight=4;overflow=hidden;rotatable=0;points=[[0,0.5],[1,0.5]];portConstraint=eastwest;" vertex="1" parent="2Q6zyHyjx5GXIw4nZjvg-0">
          <mxGeometry y="188" width="280" height="252" as="geometry" />
        </mxCell>
        <mxCell id="2Q6zyHyjx5GXIw4nZjvg-4" value="RegisterUserController" style="swimlane;fontStyle=2;align=center;verticalAlign=top;childLayout=stackLayout;horizontal=1;startSize=26;horizontalStack=0;resizeParent=1;resizeLast=0;collapsible=1;marginBottom=0;rounded=0;shadow=0;strokeWidth=1;" vertex="1" parent="WIyWlLk6GJQsqaUBKTNV-1">
          <mxGeometry y="560" width="280" height="170" as="geometry">
            <mxRectangle x="230" y="140" width="160" height="26" as="alternateBounds" />
          </mxGeometry>
        </mxCell>
        <mxCell id="2Q6zyHyjx5GXIw4nZjvg-5" value="+ regsterUser(form:UserForm)：String&#xa;{・バリデーションチェック&#xa;・UserFormをUserに変換しserviceへ渡す&#xa;・登録完了メッセージ&#xa;・「/users（POST）」}" style="text;align=left;verticalAlign=top;spacingLeft=4;spacingRight=4;overflow=hidden;rotatable=0;points=[[0,0.5],[1,0.5]];portConstraint=eastwest;" vertex="1" parent="2Q6zyHyjx5GXIw4nZjvg-4">
          <mxGeometry y="26" width="280" height="144" as="geometry" />
        </mxCell>
        <mxCell id="2Q6zyHyjx5GXIw4nZjvg-6" value="実装時に変更あり" style="whiteSpace=wrap;html=1;" vertex="1" parent="WIyWlLk6GJQsqaUBKTNV-1">
          <mxGeometry x="80" width="120" height="60" as="geometry" />
        </mxCell>
        <mxCell id="2Q6zyHyjx5GXIw4nZjvg-7" value="User(entity)" style="swimlane;fontStyle=0;align=center;verticalAlign=top;childLayout=stackLayout;horizontal=1;startSize=26;horizontalStack=0;resizeParent=1;resizeLast=0;collapsible=1;marginBottom=0;rounded=0;shadow=0;strokeWidth=1;" vertex="1" parent="WIyWlLk6GJQsqaUBKTNV-1">
          <mxGeometry x="960" y="80" width="280" height="440" as="geometry">
            <mxRectangle x="550" y="140" width="160" height="26" as="alternateBounds" />
          </mxGeometry>
        </mxCell>
        <mxCell id="2Q6zyHyjx5GXIw4nZjvg-8" value="- id：String&#xa;- name：String&#xa;- birthdate：LocalDate&#xa;- deleted：boolean&#xa;- createdAt：LocalDateTime&#xa;- createdBy：String&#xa;- updatedAt：LocalDateTime&#xa;- updatedBy：String&#xa;- deletedAt：LocalDateTime&#xa;- deletedBy：String" style="text;align=left;verticalAlign=top;spacingLeft=4;spacingRight=4;overflow=hidden;rotatable=0;points=[[0,0.5],[1,0.5]];portConstraint=eastwest;" vertex="1" parent="2Q6zyHyjx5GXIw4nZjvg-7">
          <mxGeometry y="26" width="280" height="154" as="geometry" />
        </mxCell>
        <mxCell id="2Q6zyHyjx5GXIw4nZjvg-9" value="" style="line;html=1;strokeWidth=1;align=left;verticalAlign=middle;spacingTop=-1;spacingLeft=3;spacingRight=3;rotatable=0;labelPosition=right;points=[];portConstraint=eastwest;" vertex="1" parent="2Q6zyHyjx5GXIw4nZjvg-7">
          <mxGeometry y="180" width="280" height="8" as="geometry" />
        </mxCell>
        <mxCell id="2Q6zyHyjx5GXIw4nZjvg-10" value="+ getId()：String&#xa;+ getName()：String&#xa;+ getBirthdate()：LocalDate&#xa;+ getDeleted()：boolean&#xa;+ getCreatedAt()：LocalDateTime&#xa;+ getCreatedBy()：String&#xa;+ getUpdatedAt()：LocalDateTime&#xa;+ getUpdatedBy()：String&#xa;+ getDeletedAt()：LocalDateTime&#xa;+ getDeletedBy()：String&#xa;&#xa;&#xa;+ 各setter" style="text;align=left;verticalAlign=top;spacingLeft=4;spacingRight=4;overflow=hidden;rotatable=0;points=[[0,0.5],[1,0.5]];portConstraint=eastwest;" vertex="1" parent="2Q6zyHyjx5GXIw4nZjvg-7">
          <mxGeometry y="188" width="280" height="252" as="geometry" />
        </mxCell>
        <mxCell id="2Q6zyHyjx5GXIw4nZjvg-11" value="UpdateUserController" style="swimlane;fontStyle=2;align=center;verticalAlign=top;childLayout=stackLayout;horizontal=1;startSize=26;horizontalStack=0;resizeParent=1;resizeLast=0;collapsible=1;marginBottom=0;rounded=0;shadow=0;strokeWidth=1;" vertex="1" parent="WIyWlLk6GJQsqaUBKTNV-1">
          <mxGeometry x="640" y="560" width="280" height="170" as="geometry">
            <mxRectangle x="230" y="140" width="160" height="26" as="alternateBounds" />
          </mxGeometry>
        </mxCell>
        <mxCell id="2Q6zyHyjx5GXIw4nZjvg-12" value="+ updateUser(id:String,form:UserForm)：String&#xa;{・バリデーションチェック&#xa;・idをserviceに渡し該当のデータ(User)を検索&#xa;・持ってきたデータ(User)とUserFormを&#xa;　servideへ渡す&#xa;・処理が正常に完了すれば更新完了メッセージ&#xa;・該当データがなければそのメッセージ&#xa;・「/users/{id}（PATCH）」}&#xa;" style="text;align=left;verticalAlign=top;spacingLeft=4;spacingRight=4;overflow=hidden;rotatable=0;points=[[0,0.5],[1,0.5]];portConstraint=eastwest;" vertex="1" parent="2Q6zyHyjx5GXIw4nZjvg-11">
          <mxGeometry y="26" width="280" height="144" as="geometry" />
        </mxCell>
        <mxCell id="2Q6zyHyjx5GXIw4nZjvg-13" value="≪interface≫&#xa;UserService" style="swimlane;fontStyle=2;align=center;verticalAlign=top;childLayout=stackLayout;horizontal=1;startSize=40;horizontalStack=0;resizeParent=1;resizeLast=0;collapsible=1;marginBottom=0;rounded=0;shadow=0;strokeWidth=1;" vertex="1" parent="WIyWlLk6GJQsqaUBKTNV-1">
          <mxGeometry x="460" y="920" width="320" height="260" as="geometry">
            <mxRectangle x="230" y="140" width="160" height="26" as="alternateBounds" />
          </mxGeometry>
        </mxCell>
        <mxCell id="2Q6zyHyjx5GXIw4nZjvg-14" value="+ createUser(form:User)：void&#xa;&#xa;+ readUser(name:String,birthdate:date)：List&lt;User&gt;&#xa;&#xa;+ readUserName(name:String)：List&lt;User&gt;&#xa;&#xa;+ readUserBirthdate(birthdate:date)：List&lt;User&gt;&#xa;&#xa;+ readUserId(id:String)：User&#xa;&#xa;+ updateUser(user:User,form:UserForm)：void&#xa;&#xa;+ deleteUser(user:User)：void" style="text;align=left;verticalAlign=top;spacingLeft=4;spacingRight=4;overflow=hidden;rotatable=0;points=[[0,0.5],[1,0.5]];portConstraint=eastwest;" vertex="1" parent="2Q6zyHyjx5GXIw4nZjvg-13">
          <mxGeometry y="40" width="320" height="220" as="geometry" />
        </mxCell>
        <mxCell id="2Q6zyHyjx5GXIw4nZjvg-15" value="Use" style="endArrow=open;endSize=12;dashed=1;html=1;rounded=0;entryX=0.5;entryY=0;entryDx=0;entryDy=0;exitX=0.515;exitY=1.018;exitDx=0;exitDy=0;exitPerimeter=0;" edge="1" parent="WIyWlLk6GJQsqaUBKTNV-1" source="2Q6zyHyjx5GXIw4nZjvg-5" target="2Q6zyHyjx5GXIw4nZjvg-13">
          <mxGeometry width="160" relative="1" as="geometry">
            <mxPoint x="260" y="702" as="sourcePoint" />
            <mxPoint x="420" y="702" as="targetPoint" />
          </mxGeometry>
        </mxCell>
        <mxCell id="2Q6zyHyjx5GXIw4nZjvg-16" value="Use" style="endArrow=open;endSize=12;dashed=1;html=1;rounded=0;entryX=0.5;entryY=0;entryDx=0;entryDy=0;exitX=0.498;exitY=0.999;exitDx=0;exitDy=0;exitPerimeter=0;" edge="1" parent="WIyWlLk6GJQsqaUBKTNV-1" source="2Q6zyHyjx5GXIw4nZjvg-12" target="2Q6zyHyjx5GXIw4nZjvg-13">
          <mxGeometry width="160" relative="1" as="geometry">
            <mxPoint x="499" y="704" as="sourcePoint" />
            <mxPoint x="659" y="704" as="targetPoint" />
          </mxGeometry>
        </mxCell>
        <mxCell id="2Q6zyHyjx5GXIw4nZjvg-17" value="UserServiceImpl" style="swimlane;fontStyle=2;align=center;verticalAlign=top;childLayout=stackLayout;horizontal=1;startSize=30;horizontalStack=0;resizeParent=1;resizeLast=0;collapsible=1;marginBottom=0;rounded=0;shadow=0;strokeWidth=1;" vertex="1" parent="WIyWlLk6GJQsqaUBKTNV-1">
          <mxGeometry x="460" y="1240" width="320" height="500" as="geometry">
            <mxRectangle x="230" y="140" width="160" height="26" as="alternateBounds" />
          </mxGeometry>
        </mxCell>
        <mxCell id="2Q6zyHyjx5GXIw4nZjvg-18" value="+ createUser(user:User)：void&#xa;{・ulidIdでIDを生成しUserにセット&#xa;・作業時刻をcreatedAt,updatedAtにセット&#xa;・mapperにuserを引き渡し登録処理}&#xa;&#xa;+ ulidId()：String&#xa;{IDを生成}&#xa;&#xa;+ readUser(name:String,birthdate:LocalDate)：List&lt;User&gt;&#xa;{・mapperにname,birthdateを引き渡し検索処理&#xa;・検索結果をリストで返却}&#xa;&#xa;+ readUserName(name:String)：List&lt;User&gt;&#xa;{・mapperにnameを引き渡し検索処理&#xa;・検索結果をリストで返却}&#xa;&#xa;+ readUserBirthdate(birthdate:LocalDate)：List&lt;User&gt;&#xa;{・mapperにbithdateを引き渡し検索処理&#xa;・検索結果をリストで返却}&#xa;&#xa;+ readUserId(id:String)：User&#xa;{・mapperにidを引き渡し検索処理&#xa;・検索結果を返却}&#xa;&#xa;+ updateUser(user:User,form:UserForm)：void&#xa;{・formの値をそれぞれuserにセット&#xa;・作業時刻をupdatedAtにセット&#xa;・mapperにuserを引き渡し更新処理}&#xa;&#xa;+ deleteUser(user:User)：void&#xa;{・作業時刻をdeletedAtにセット&#xa;・mapperにuserのidとdeletedAtを引き渡し論理削除処理}&#xa;" style="text;align=left;verticalAlign=top;spacingLeft=4;spacingRight=4;overflow=hidden;rotatable=0;points=[[0,0.5],[1,0.5]];portConstraint=eastwest;" vertex="1" parent="2Q6zyHyjx5GXIw4nZjvg-17">
          <mxGeometry y="30" width="320" height="470" as="geometry" />
        </mxCell>
        <mxCell id="2Q6zyHyjx5GXIw4nZjvg-19" value="" style="endArrow=block;dashed=1;endFill=0;endSize=12;html=1;rounded=0;exitX=0.5;exitY=0;exitDx=0;exitDy=0;entryX=0.5;entryY=1;entryDx=0;entryDy=0;" edge="1" parent="WIyWlLk6GJQsqaUBKTNV-1" source="2Q6zyHyjx5GXIw4nZjvg-17" target="2Q6zyHyjx5GXIw4nZjvg-13">
          <mxGeometry width="160" relative="1" as="geometry">
            <mxPoint x="390" y="1060" as="sourcePoint" />
            <mxPoint x="550" y="1060" as="targetPoint" />
          </mxGeometry>
        </mxCell>
        <mxCell id="2Q6zyHyjx5GXIw4nZjvg-20" value="≪interface≫&#xa;UserMapper" style="swimlane;fontStyle=2;align=center;verticalAlign=top;childLayout=stackLayout;horizontal=1;startSize=40;horizontalStack=0;resizeParent=1;resizeLast=0;collapsible=1;marginBottom=0;rounded=0;shadow=0;strokeWidth=1;" vertex="1" parent="WIyWlLk6GJQsqaUBKTNV-1">
          <mxGeometry x="1040" y="930" width="320" height="260" as="geometry">
            <mxRectangle x="230" y="140" width="160" height="26" as="alternateBounds" />
          </mxGeometry>
        </mxCell>
        <mxCell id="2Q6zyHyjx5GXIw4nZjvg-21" value="+ setUser(user:User)&#xa;&#xa;+ getUser(name:String,birthdate:LocalDate)：List&lt;User&gt;&#xa;&#xa;+ getUserName(name:String)：List&lt;User&gt;&#xa;&#xa;+ getUserBirthdate(birthdate:LocalDate)：List&lt;User&gt;&#xa;&#xa;+ getUserId(id:String)：User&#xa;&#xa;+ updateUser(user:User)：void&#xa;&#xa;+ deleteUser(id:String,deletedAt:LocalDate)：void&#xa;" style="text;align=left;verticalAlign=top;spacingLeft=4;spacingRight=4;overflow=hidden;rotatable=0;points=[[0,0.5],[1,0.5]];portConstraint=eastwest;" vertex="1" parent="2Q6zyHyjx5GXIw4nZjvg-20">
          <mxGeometry y="40" width="320" height="220" as="geometry" />
        </mxCell>
        <mxCell id="2Q6zyHyjx5GXIw4nZjvg-22" value="Use" style="endArrow=open;endSize=12;dashed=1;html=1;rounded=0;entryX=0;entryY=0.5;entryDx=0;entryDy=0;exitX=1;exitY=0.5;exitDx=0;exitDy=0;" edge="1" parent="WIyWlLk6GJQsqaUBKTNV-1" source="2Q6zyHyjx5GXIw4nZjvg-18" target="2Q6zyHyjx5GXIw4nZjvg-21">
          <mxGeometry width="160" relative="1" as="geometry">
            <mxPoint x="350" y="1280" as="sourcePoint" />
            <mxPoint x="550" y="1270" as="targetPoint" />
          </mxGeometry>
        </mxCell>
        <mxCell id="2Q6zyHyjx5GXIw4nZjvg-23" value="UserMpper.xml" style="swimlane;fontStyle=2;align=center;verticalAlign=top;childLayout=stackLayout;horizontal=1;startSize=26;horizontalStack=0;resizeParent=1;resizeLast=0;collapsible=1;marginBottom=0;rounded=0;shadow=0;strokeWidth=1;" vertex="1" parent="WIyWlLk6GJQsqaUBKTNV-1">
          <mxGeometry x="1040" y="1260" width="320" height="260" as="geometry">
            <mxRectangle x="230" y="140" width="160" height="26" as="alternateBounds" />
          </mxGeometry>
        </mxCell>
        <mxCell id="2Q6zyHyjx5GXIw4nZjvg-24" value="DB処理" style="text;align=left;verticalAlign=top;spacingLeft=4;spacingRight=4;overflow=hidden;rotatable=0;points=[[0,0.5],[1,0.5]];portConstraint=eastwest;" vertex="1" parent="2Q6zyHyjx5GXIw4nZjvg-23">
          <mxGeometry y="26" width="320" height="134" as="geometry" />
        </mxCell>
        <mxCell id="2Q6zyHyjx5GXIw4nZjvg-25" value="" style="endArrow=block;dashed=1;endFill=0;endSize=12;html=1;rounded=0;entryX=0.5;entryY=1;entryDx=0;entryDy=0;exitX=0.5;exitY=0;exitDx=0;exitDy=0;" edge="1" parent="WIyWlLk6GJQsqaUBKTNV-1" source="2Q6zyHyjx5GXIw4nZjvg-23" target="2Q6zyHyjx5GXIw4nZjvg-20">
          <mxGeometry width="160" relative="1" as="geometry">
            <mxPoint x="550" y="1260" as="sourcePoint" />
            <mxPoint x="710" y="1260" as="targetPoint" />
          </mxGeometry>
        </mxCell>
        <mxCell id="2Q6zyHyjx5GXIw4nZjvg-26" value="SearchUserController" style="swimlane;fontStyle=2;align=center;verticalAlign=top;childLayout=stackLayout;horizontal=1;startSize=26;horizontalStack=0;resizeParent=1;resizeLast=0;collapsible=1;marginBottom=0;rounded=0;shadow=0;strokeWidth=1;" vertex="1" parent="WIyWlLk6GJQsqaUBKTNV-1">
          <mxGeometry x="320" y="560" width="280" height="170" as="geometry">
            <mxRectangle x="230" y="140" width="160" height="26" as="alternateBounds" />
          </mxGeometry>
        </mxCell>
        <mxCell id="2Q6zyHyjx5GXIw4nZjvg-27" value="+ searchUser(form:SearchUserForm)&#xa;：List&lt;UserView&gt;&#xa;{・バリデーションチェック&#xa;・SearchUserFormの内容ごとに&#xa;　それぞれのserviceにデータを渡す&#xa;　1,名前のみ　2,誕生日のみ　3,両方&#xa;・検索結果のList&lt;User&gt;をList&lt;UserView&gt;に変換&#xa;　して返す&#xa;・「/users（GET）」}&#xa;&#xa;" style="text;align=left;verticalAlign=top;spacingLeft=4;spacingRight=4;overflow=hidden;rotatable=0;points=[[0,0.5],[1,0.5]];portConstraint=eastwest;" vertex="1" parent="2Q6zyHyjx5GXIw4nZjvg-26">
          <mxGeometry y="26" width="280" height="144" as="geometry" />
        </mxCell>
        <mxCell id="2Q6zyHyjx5GXIw4nZjvg-28" value="Use" style="endArrow=open;endSize=12;dashed=1;html=1;rounded=0;entryX=0.5;entryY=0;entryDx=0;entryDy=0;exitX=0.512;exitY=1.005;exitDx=0;exitDy=0;exitPerimeter=0;" edge="1" parent="WIyWlLk6GJQsqaUBKTNV-1" source="2Q6zyHyjx5GXIw4nZjvg-27" target="2Q6zyHyjx5GXIw4nZjvg-13">
          <mxGeometry width="160" relative="1" as="geometry">
            <mxPoint x="360" y="740" as="sourcePoint" />
            <mxPoint x="520" y="740" as="targetPoint" />
          </mxGeometry>
        </mxCell>
        <mxCell id="2Q6zyHyjx5GXIw4nZjvg-29" value="UserResponse(form)" style="swimlane;fontStyle=0;align=center;verticalAlign=top;childLayout=stackLayout;horizontal=1;startSize=26;horizontalStack=0;resizeParent=1;resizeLast=0;collapsible=1;marginBottom=0;rounded=0;shadow=0;strokeWidth=1;" vertex="1" parent="WIyWlLk6GJQsqaUBKTNV-1">
          <mxGeometry y="80" width="280" height="440" as="geometry">
            <mxRectangle x="550" y="140" width="160" height="26" as="alternateBounds" />
          </mxGeometry>
        </mxCell>
        <mxCell id="2Q6zyHyjx5GXIw4nZjvg-30" value="- id：String&#xa;- name：String&#xa;- birthdate：LocalDate&#xa;&#xa;返却用" style="text;align=left;verticalAlign=top;spacingLeft=4;spacingRight=4;overflow=hidden;rotatable=0;points=[[0,0.5],[1,0.5]];portConstraint=eastwest;" vertex="1" parent="2Q6zyHyjx5GXIw4nZjvg-29">
          <mxGeometry y="26" width="280" height="154" as="geometry" />
        </mxCell>
        <mxCell id="2Q6zyHyjx5GXIw4nZjvg-31" value="" style="line;html=1;strokeWidth=1;align=left;verticalAlign=middle;spacingTop=-1;spacingLeft=3;spacingRight=3;rotatable=0;labelPosition=right;points=[];portConstraint=eastwest;" vertex="1" parent="2Q6zyHyjx5GXIw4nZjvg-29">
          <mxGeometry y="180" width="280" height="8" as="geometry" />
        </mxCell>
        <mxCell id="2Q6zyHyjx5GXIw4nZjvg-32" value="+ getId()：String&#xa;+ getName()：String&#xa;+ getBirthdate()：LocalDate&#xa;&#xa;+ setId(id:String)：void&#xa;+ setIName(name:String)：void&#xa;+ setBirthdate(LocalDate:birthdate)：void" style="text;align=left;verticalAlign=top;spacingLeft=4;spacingRight=4;overflow=hidden;rotatable=0;points=[[0,0.5],[1,0.5]];portConstraint=eastwest;" vertex="1" parent="2Q6zyHyjx5GXIw4nZjvg-29">
          <mxGeometry y="188" width="280" height="252" as="geometry" />
        </mxCell>
        <mxCell id="2Q6zyHyjx5GXIw4nZjvg-33" value="SearchUserForm(form)" style="swimlane;fontStyle=0;align=center;verticalAlign=top;childLayout=stackLayout;horizontal=1;startSize=26;horizontalStack=0;resizeParent=1;resizeLast=0;collapsible=1;marginBottom=0;rounded=0;shadow=0;strokeWidth=1;" vertex="1" parent="WIyWlLk6GJQsqaUBKTNV-1">
          <mxGeometry x="640" y="80" width="280" height="440" as="geometry">
            <mxRectangle x="550" y="140" width="160" height="26" as="alternateBounds" />
          </mxGeometry>
        </mxCell>
        <mxCell id="2Q6zyHyjx5GXIw4nZjvg-34" value="- name：String&#xa;- birthdate：LocalDate&#xa;&#xa;検索条件受け取り用" style="text;align=left;verticalAlign=top;spacingLeft=4;spacingRight=4;overflow=hidden;rotatable=0;points=[[0,0.5],[1,0.5]];portConstraint=eastwest;" vertex="1" parent="2Q6zyHyjx5GXIw4nZjvg-33">
          <mxGeometry y="26" width="280" height="154" as="geometry" />
        </mxCell>
        <mxCell id="2Q6zyHyjx5GXIw4nZjvg-35" value="" style="line;html=1;strokeWidth=1;align=left;verticalAlign=middle;spacingTop=-1;spacingLeft=3;spacingRight=3;rotatable=0;labelPosition=right;points=[];portConstraint=eastwest;" vertex="1" parent="2Q6zyHyjx5GXIw4nZjvg-33">
          <mxGeometry y="180" width="280" height="8" as="geometry" />
        </mxCell>
        <mxCell id="2Q6zyHyjx5GXIw4nZjvg-36" value="+ getName()：String&#xa;+ getBirthdate()：LocalDate&#xa;&#xa;+ setName(name:String)：void&#xa;+ setBirthdate(LocalDate:birthdate)：void" style="text;align=left;verticalAlign=top;spacingLeft=4;spacingRight=4;overflow=hidden;rotatable=0;points=[[0,0.5],[1,0.5]];portConstraint=eastwest;" vertex="1" parent="2Q6zyHyjx5GXIw4nZjvg-33">
          <mxGeometry y="188" width="280" height="252" as="geometry" />
        </mxCell>
        <mxCell id="2Q6zyHyjx5GXIw4nZjvg-37" value="DeleteUserController" style="swimlane;fontStyle=2;align=center;verticalAlign=top;childLayout=stackLayout;horizontal=1;startSize=26;horizontalStack=0;resizeParent=1;resizeLast=0;collapsible=1;marginBottom=0;rounded=0;shadow=0;strokeWidth=1;" vertex="1" parent="WIyWlLk6GJQsqaUBKTNV-1">
          <mxGeometry x="960" y="560" width="280" height="170" as="geometry">
            <mxRectangle x="230" y="140" width="160" height="26" as="alternateBounds" />
          </mxGeometry>
        </mxCell>
        <mxCell id="2Q6zyHyjx5GXIw4nZjvg-38" value="+ deleteUser(id:String:) : String&#xa;{・idをserviceに渡し該当のデータ(User)を検索&#xa;・持ってきたデータ(User)をservideへ渡す&#xa;・処理が正常に完了すれば削除完了メッセージ&#xa;・該当データがなければそのメッセージ&#xa;・「/users/{id}（DELETE）」}&#xa;" style="text;align=left;verticalAlign=top;spacingLeft=4;spacingRight=4;overflow=hidden;rotatable=0;points=[[0,0.5],[1,0.5]];portConstraint=eastwest;" vertex="1" parent="2Q6zyHyjx5GXIw4nZjvg-37">
          <mxGeometry y="26" width="280" height="144" as="geometry" />
        </mxCell>
        <mxCell id="2Q6zyHyjx5GXIw4nZjvg-39" value="Use" style="endArrow=open;endSize=12;dashed=1;html=1;rounded=0;exitX=0.499;exitY=1.003;exitDx=0;exitDy=0;exitPerimeter=0;entryX=0.5;entryY=0;entryDx=0;entryDy=0;" edge="1" parent="WIyWlLk6GJQsqaUBKTNV-1" source="2Q6zyHyjx5GXIw4nZjvg-38" target="2Q6zyHyjx5GXIw4nZjvg-13">
          <mxGeometry width="160" relative="1" as="geometry">
            <mxPoint x="1060" y="780" as="sourcePoint" />
            <mxPoint x="1220" y="780" as="targetPoint" />
          </mxGeometry>
        </mxCell>
        <mxCell id="2Q6zyHyjx5GXIw4nZjvg-40" value="Config" style="swimlane;fontStyle=0;align=center;verticalAlign=top;childLayout=stackLayout;horizontal=1;startSize=26;horizontalStack=0;resizeParent=1;resizeLast=0;collapsible=1;marginBottom=0;rounded=0;shadow=0;strokeWidth=1;" vertex="1" parent="WIyWlLk6GJQsqaUBKTNV-1">
          <mxGeometry y="920" width="280" height="200" as="geometry">
            <mxRectangle x="550" y="140" width="160" height="26" as="alternateBounds" />
          </mxGeometry>
        </mxCell>
        <mxCell id="2Q6zyHyjx5GXIw4nZjvg-41" value="&#xa;&#xa;&#xa;" style="text;align=left;verticalAlign=top;spacingLeft=4;spacingRight=4;overflow=hidden;rotatable=0;points=[[0,0.5],[1,0.5]];portConstraint=eastwest;" vertex="1" parent="2Q6zyHyjx5GXIw4nZjvg-40">
          <mxGeometry y="26" width="280" height="54" as="geometry" />
        </mxCell>
        <mxCell id="2Q6zyHyjx5GXIw4nZjvg-42" value="" style="line;html=1;strokeWidth=1;align=left;verticalAlign=middle;spacingTop=-1;spacingLeft=3;spacingRight=3;rotatable=0;labelPosition=right;points=[];portConstraint=eastwest;" vertex="1" parent="2Q6zyHyjx5GXIw4nZjvg-40">
          <mxGeometry y="80" width="280" height="8" as="geometry" />
        </mxCell>
        <mxCell id="2Q6zyHyjx5GXIw4nZjvg-43" value="+ modelMapper()：ModelMapper&#xa;{ModelMapperをDIコンテナに登録}&#xa;&#xa;&#xa;+ ulid()：ULID&#xa;{ULIDをDIコンテナに登録}" style="text;align=left;verticalAlign=top;spacingLeft=4;spacingRight=4;overflow=hidden;rotatable=0;points=[[0,0.5],[1,0.5]];portConstraint=eastwest;" vertex="1" parent="2Q6zyHyjx5GXIw4nZjvg-40">
          <mxGeometry y="88" width="280" height="102" as="geometry" />
        </mxCell>
      </root>
    </mxGraphModel>
  </diagram>
</mxfile>
